<svg xmlns="http://www.w3.org/2000/svg" width="100" height="100" viewBox="0 0 100 100" fill="none">
    <rect width="100" height="100" rx="16" fill="#ECBC0F"/>
    <path d="M16.3333 81.6667C14.0417 81.6667 12.0806 80.8514 10.45 79.2208C8.81944 77.5903 8.00278 75.6278 8 73.3333V23.3333C8 21.0417 8.81667 19.0806 10.45 17.45C12.0833 15.8194 14.0444 15.0028 16.3333 15H41.3333L49.6667 23.3333H83C85.2917 23.3333 87.2542 24.15 88.8875 25.7833C90.5208 27.4167 91.3361 29.3778 91.3333 31.6667V73.3333C91.3333 75.625 90.5181 77.5875 88.8875 79.2208C87.2569 80.8542 85.2945 81.6694 83 81.6667H16.3333ZM16.3333 73.3333H83V31.6667H46.2292L37.8958 23.3333H16.3333V73.3333Z" fill="#FB6F88"/>
    <path d="M66.3523 72V69.0909H66.6875V70.1648H66.7159C66.7405 70.1269 66.7746 70.0786 66.8182 70.0199C66.8627 69.9602 66.9261 69.9072 67.0085 69.8608C67.0919 69.8134 67.2045 69.7898 67.3466 69.7898C67.5303 69.7898 67.6922 69.8357 67.8324 69.9276C67.9725 70.0194 68.0819 70.1496 68.1605 70.3182C68.2391 70.4867 68.2784 70.6856 68.2784 70.9148C68.2784 71.1458 68.2391 71.3461 68.1605 71.5156C68.0819 71.6842 67.973 71.8149 67.8338 71.9077C67.6946 71.9995 67.5341 72.0455 67.3523 72.0455C67.2121 72.0455 67.0999 72.0223 67.0156 71.9759C66.9313 71.9285 66.8665 71.875 66.821 71.8153C66.7756 71.7547 66.7405 71.7045 66.7159 71.6648H66.6761V72H66.3523ZM66.6818 70.9091C66.6818 71.0739 66.706 71.2192 66.7543 71.3452C66.8026 71.4702 66.8731 71.5682 66.9659 71.6392C67.0587 71.7093 67.1723 71.7443 67.3068 71.7443C67.447 71.7443 67.5639 71.7074 67.6577 71.6335C67.7524 71.5587 67.8234 71.4583 67.8707 71.3324C67.919 71.2055 67.9432 71.0644 67.9432 70.9091C67.9432 70.7557 67.9195 70.6174 67.8722 70.4943C67.8258 70.3703 67.7552 70.2723 67.6605 70.2003C67.5668 70.1274 67.4489 70.0909 67.3068 70.0909C67.1705 70.0909 67.0559 70.1255 66.9631 70.1946C66.8703 70.2628 66.8002 70.3584 66.7528 70.4815C66.7055 70.6037 66.6818 70.7462 66.6818 70.9091ZM68.929 72.8182C68.8722 72.8182 68.8215 72.8134 68.777 72.804C68.7325 72.7955 68.7017 72.7869 68.6847 72.7784L68.7699 72.483C68.8513 72.5038 68.9233 72.5114 68.9858 72.5057C69.0483 72.5 69.1037 72.4721 69.152 72.4219C69.2012 72.3726 69.2462 72.2926 69.2869 72.1818L69.3494 72.0114L68.5426 69.8182H68.9062L69.5085 71.5568H69.5312L70.1335 69.8182H70.4972L69.571 72.3182C69.5294 72.4309 69.4777 72.5241 69.4162 72.598C69.3546 72.6728 69.2831 72.7282 69.2017 72.7642C69.1212 72.8002 69.0303 72.8182 68.929 72.8182ZM72.3999 69.0909V72H72.0646V69.0909H72.3999ZM73.0138 72V69.8182H73.3491V72H73.0138ZM73.1843 69.4545C73.119 69.4545 73.0626 69.4323 73.0153 69.3878C72.9689 69.3433 72.9457 69.2898 72.9457 69.2273C72.9457 69.1648 72.9689 69.1113 73.0153 69.0668C73.0626 69.0223 73.119 69 73.1843 69C73.2496 69 73.3055 69.0223 73.3519 69.0668C73.3993 69.1113 73.4229 69.1648 73.4229 69.2273C73.4229 69.2898 73.3993 69.3433 73.3519 69.3878C73.3055 69.4323 73.2496 69.4545 73.1843 69.4545ZM74.2756 71.2045L74.2699 70.7898H74.3381L75.2926 69.8182H75.7074L74.6903 70.8466H74.6619L74.2756 71.2045ZM73.9631 72V69.0909H74.2983V72H73.9631ZM75.3494 72L74.4972 70.9205L74.7358 70.6875L75.7756 72H75.3494ZM76.8729 72.0455C76.6911 72.0455 76.5305 71.9995 76.3913 71.9077C76.2521 71.8149 76.1432 71.6842 76.0646 71.5156C75.986 71.3461 75.9467 71.1458 75.9467 70.9148C75.9467 70.6856 75.986 70.4867 76.0646 70.3182C76.1432 70.1496 76.2526 70.0194 76.3928 69.9276C76.5329 69.8357 76.6948 69.7898 76.8786 69.7898C77.0206 69.7898 77.1328 69.8134 77.2152 69.8608C77.2985 69.9072 77.362 69.9602 77.4055 70.0199C77.45 70.0786 77.4846 70.1269 77.5092 70.1648H77.5376V69.0909H77.8729V72H77.549V71.6648H77.5092C77.4846 71.7045 77.4496 71.7547 77.4041 71.8153C77.3587 71.875 77.2938 71.9285 77.2095 71.9759C77.1252 72.0223 77.013 72.0455 76.8729 72.0455ZM76.9183 71.7443C77.0528 71.7443 77.1664 71.7093 77.2592 71.6392C77.352 71.5682 77.4226 71.4702 77.4709 71.3452C77.5192 71.2192 77.5433 71.0739 77.5433 70.9091C77.5433 70.7462 77.5196 70.6037 77.4723 70.4815C77.425 70.3584 77.3549 70.2628 77.2621 70.1946C77.1693 70.1255 77.0547 70.0909 76.9183 70.0909C76.7763 70.0909 76.6579 70.1274 76.5632 70.2003C76.4695 70.2723 76.3989 70.3703 76.3516 70.4943C76.3052 70.6174 76.282 70.7557 76.282 70.9091C76.282 71.0644 76.3056 71.2055 76.353 71.3324C76.4013 71.4583 76.4723 71.5587 76.5661 71.6335C76.6607 71.7074 76.7782 71.7443 76.9183 71.7443ZM79.1754 72.0511C79.0372 72.0511 78.9117 72.0251 78.799 71.973C78.6863 71.92 78.5968 71.8438 78.5305 71.7443C78.4643 71.6439 78.4311 71.5227 78.4311 71.3807C78.4311 71.2557 78.4557 71.1544 78.505 71.0767C78.5542 70.9981 78.62 70.9366 78.7024 70.892C78.7848 70.8475 78.8757 70.8144 78.9751 70.7926C79.0755 70.7699 79.1764 70.7519 79.2777 70.7386C79.4103 70.7216 79.5178 70.7088 79.6001 70.7003C79.6835 70.6908 79.7441 70.6752 79.782 70.6534C79.8208 70.6316 79.8402 70.5937 79.8402 70.5398V70.5284C79.8402 70.3883 79.8018 70.2794 79.7251 70.2017C79.6494 70.1241 79.5343 70.0852 79.38 70.0852C79.2199 70.0852 79.0945 70.1203 79.0036 70.1903C78.9126 70.2604 78.8487 70.3352 78.8118 70.4148L78.4936 70.3011C78.5504 70.1686 78.6262 70.0653 78.7209 69.9915C78.8165 69.9167 78.9207 69.8646 79.0334 69.8352C79.147 69.8049 79.2588 69.7898 79.3686 69.7898C79.4387 69.7898 79.5192 69.7983 79.6101 69.8153C79.7019 69.8314 79.7905 69.8651 79.8757 69.9162C79.9619 69.9673 80.0334 70.0445 80.0902 70.1477C80.147 70.2509 80.1754 70.3892 80.1754 70.5625V72H79.8402V71.7045H79.8232C79.8004 71.7519 79.7625 71.8026 79.7095 71.8565C79.6565 71.9105 79.5859 71.9564 79.4979 71.9943C79.4098 72.0322 79.3023 72.0511 79.1754 72.0511ZM79.2266 71.75C79.3591 71.75 79.4709 71.724 79.5618 71.6719C79.6536 71.6198 79.7228 71.5526 79.7692 71.4702C79.8165 71.3878 79.8402 71.3011 79.8402 71.2102V70.9034C79.826 70.9205 79.7947 70.9361 79.7464 70.9503C79.6991 70.9635 79.6442 70.9754 79.5817 70.9858C79.5201 70.9953 79.46 71.0038 79.4013 71.0114C79.3435 71.018 79.2966 71.0237 79.2607 71.0284C79.1735 71.0398 79.0921 71.0582 79.0163 71.0838C78.9415 71.1084 78.8809 71.1458 78.8345 71.196C78.7891 71.2453 78.7663 71.3125 78.7663 71.3977C78.7663 71.5142 78.8094 71.6023 78.8956 71.6619C78.9827 71.7206 79.093 71.75 79.2266 71.75ZM81.1225 70.6875V72H80.7873V69.8182H81.1112V70.1591H81.1396C81.1907 70.0483 81.2683 69.9593 81.3725 69.892C81.4767 69.8239 81.6112 69.7898 81.7759 69.7898C81.9237 69.7898 82.0529 69.8201 82.1637 69.8807C82.2745 69.9403 82.3607 70.0312 82.4222 70.1534C82.4838 70.2746 82.5146 70.428 82.5146 70.6136V72H82.1793V70.6364C82.1793 70.465 82.1348 70.3314 82.0458 70.2358C81.9568 70.1392 81.8346 70.0909 81.6793 70.0909C81.5723 70.0909 81.4767 70.1141 81.3924 70.1605C81.3091 70.2069 81.2433 70.2746 81.195 70.3636C81.1467 70.4527 81.1225 70.5606 81.1225 70.6875Z" fill="#E9EDE2"/>
</svg>